# xmcd CD database file
#
# Track frame offsets:
#	150
#	23267
#	35859
#	49255
#	87050
#	94323
#	109725
#	118759
#	126436
#	162259
#	196267
#	208496
#	220436
#	237215
#
# Disc length: 3647 seconds
#
# Revision: 0
# Processed by: cddbd v1.5.2PL0 Copyright (c) Steve Scherf et al.
# Submitted via: CDex 1.51
#
DISCID=cb0e3d0e
DTITLE=Gordon Stout - Astral Projections
DYEAR=2001
DGENRE=Jazz
TTITLE0=Astral Dance
TTITLE1=Mexican Dance # 2
TTITLE2=Mexican Dance # 1
TTITLE3=Rovers of Wood
TTITLE4=Episode # 1
TTITLE5=Episode # 2
TTITLE6=Episode # 3
TTITLE7=Episode # 4
TTITLE8=Sedimental Structures
TTITLE9=Rumble Strips
TTITLE10=Choro # 1
TTITLE11=Choro # 3
TTITLE12=Choro # 9
TTITLE13=Astral Projections
EXTD=YEAR: 2001
EXTT0=
EXTT1=
EXTT2=
EXTT3=
EXTT4=
EXTT5=
EXTT6=
EXTT7=
EXTT8=
EXTT9=
EXTT10=
EXTT11=
EXTT12=
EXTT13=
PLAYORDER=
